<?xml version="1.0" standalone="no"?>
<!DOCTYPE svg PUBLIC "-//W3C//DTD SVG 20010904//EN"
 "http://www.w3.org/TR/2001/REC-SVG-20010904/DTD/svg10.dtd">
<svg version="1.0" xmlns="http://www.w3.org/2000/svg"
 width="947.000000pt" height="1041.000000pt" viewBox="0 0 947.000000 1041.000000"
 preserveAspectRatio="xMidYMid meet">

<g transform="translate(0.000000,1041.000000) scale(0.100000,-0.100000)"
fill="#000000" stroke="none">
<path d="M7395 9971 c-22 -10 -90 -52 -151 -93 -164 -112 -344 -190 -499 -218
-35 -6 -360 -14 -778 -20 -882 -12 -987 -19 -1192 -87 -457 -150 -969 -537
-1363 -1030 l-112 -141 -203 -5 c-229 -5 -276 -16 -326 -73 -17 -18 -36 -50
-42 -71 -10 -29 -14 -261 -16 -969 l-4 -931 -446 -5 -446 -4 -45 -49 c-412
-454 -1194 -1340 -1444 -1636 l-56 -67 -8 -158 c-4 -88 -8 -991 -8 -2009 -1
-2210 -5 -2130 101 -2177 45 -20 71 -21 513 -29 605 -10 7175 -10 7780 0 442
8 468 9 513 29 106 47 102 -37 102 2217 -1 1040 -4 1943 -9 2007 l-8 117 -116
138 c-180 214 -387 454 -757 878 -506 578 -622 705 -664 723 -32 15 -111 17
-678 20 l-643 4 1 341 c1 188 5 493 8 677 l6 334 95 48 c52 27 183 81 290 122
281 105 391 154 700 308 391 195 851 455 1098 620 118 79 141 113 142 205 0
89 -22 127 -149 256 -227 231 -548 463 -927 669 -151 81 -191 90 -259 59z
m310 -461 c50 -30 151 -94 225 -144 114 -77 176 -124 354 -268 11 -9 19 -18
16 -20 -3 -3 -102 -61 -220 -130 -663 -386 -954 -529 -1555 -760 -198 -76
-505 -247 -1233 -686 -184 -111 -349 -204 -367 -208 -24 -4 -40 -1 -58 13 -37
27 -87 105 -93 144 -6 35 -4 37 87 106 111 83 157 116 524 373 473 331 565
404 591 467 50 118 -57 263 -193 263 -63 0 -85 -12 -296 -158 l-175 -122 -746
0 c-422 0 -746 4 -746 9 0 15 301 303 413 394 223 184 429 299 692 387 l149
50 727 0 c749 0 924 7 1064 40 210 50 427 148 597 271 l93 67 30 -18 c17 -9
71 -41 120 -70z m-3040 -1583 c-185 -148 -260 -275 -272 -457 -10 -162 28
-279 123 -380 110 -116 261 -180 429 -180 160 0 188 13 698 324 186 113 340
206 343 206 2 0 4 -436 4 -970 l0 -970 -1430 0 -1430 0 0 1230 0 1230 788 0
787 -1 -40 -32z m-1957 -2214 l2 -213 -122 0 c-170 -1 -217 -20 -260 -104 -43
-84 -20 -171 65 -254 l44 -43 2234 4 c1481 3 2254 8 2293 15 159 28 207 214
90 347 l-27 29 -211 7 c-116 4 -257 8 -313 8 l-103 1 0 205 0 205 530 2 c292
1 548 2 569 3 l39 0 525 -605 525 -605 -446 -6 c-622 -9 -5898 -10 -6618 -2
l-592 6 211 241 c116 133 357 406 535 609 l325 367 351 -2 351 -3 3 -212z
m6137 -3278 l0 -1840 -4085 0 -4085 0 -3 1830 c-1 1007 0 1836 3 1843 3 10
826 12 4087 10 l4083 -3 0 -1840z"/>
<path d="M7490 3004 c-8 -1 -32 -5 -53 -9 -74 -12 -138 -93 -152 -192 -7 -52
-7 -53 -41 -53 l-35 0 3 -82 3 -83 33 -3 32 -3 0 -210 0 -209 95 0 95 0 0 210
0 210 49 0 c80 0 81 1 81 91 l0 79 -65 0 c-61 0 -65 1 -65 23 0 44 37 69 83
56 17 -5 32 -8 33 -6 3 4 44 139 44 147 0 16 -101 41 -140 34z"/>
<path d="M1847 2993 c-4 -3 -7 -192 -7 -420 l0 -413 95 0 95 0 0 145 c0 166
11 233 45 265 31 29 90 30 119 1 20 -20 21 -33 24 -216 l3 -195 95 0 95 0 -3
233 c-3 215 -5 235 -25 272 -11 22 -32 50 -45 62 -62 58 -171 70 -254 28 -27
-14 -50 -25 -51 -25 -2 0 -3 61 -3 135 l0 135 -88 0 c-49 0 -92 -3 -95 -7z"/>
<path d="M3210 2830 l0 -80 -40 0 -41 0 3 -82 3 -83 38 -3 37 -3 0 -122 c0
-67 5 -138 10 -158 14 -51 49 -100 88 -122 57 -33 187 -33 240 1 20 14 -26
165 -48 156 -38 -16 -59 -15 -79 5 -19 19 -21 33 -21 131 l0 109 58 3 57 3 3
83 3 82 -61 0 -60 0 0 80 0 80 -95 0 -95 0 0 -80z"/>
<path d="M2693 2764 c-61 -22 -136 -94 -164 -156 -32 -72 -34 -210 -3 -279 29
-63 79 -116 138 -147 43 -22 64 -26 136 -26 99 -1 155 19 212 77 60 59 82 119
86 224 4 83 1 98 -23 150 -32 72 -65 107 -130 141 -63 32 -187 40 -252 16z
m181 -193 c52 -52 46 -176 -11 -221 -28 -22 -82 -26 -114 -10 -29 16 -51 67
-51 124 0 67 14 102 54 126 42 26 83 20 122 -19z"/>
<path d="M4355 2760 c-65 -25 -121 -81 -154 -150 -35 -74 -37 -210 -5 -281 30
-63 79 -116 138 -147 44 -23 63 -27 136 -27 98 0 152 20 211 78 65 64 84 117
84 237 0 89 -3 111 -22 146 -34 64 -67 97 -125 129 -71 39 -187 45 -263 15z
m178 -178 c63 -55 60 -191 -4 -236 -29 -20 -88 -21 -116 -1 -48 34 -65 145
-32 207 29 54 108 70 152 30z"/>
<path d="M5780 2764 c-19 -8 -42 -22 -52 -31 -17 -15 -18 -14 -18 10 l0 27
-90 0 -90 0 2 -412 3 -413 93 -3 92 -3 0 131 c0 71 3 130 6 130 3 0 19 -9 35
-20 37 -27 116 -36 174 -20 53 15 128 77 154 129 63 126 49 298 -34 407 -55
72 -189 105 -275 68z m91 -170 c34 -17 69 -82 69 -129 0 -40 -33 -111 -58
-124 -33 -17 -87 -13 -115 9 -71 56 -57 206 24 247 32 17 44 16 80 -3z"/>
<path d="M6487 2770 c-16 -5 -44 -20 -63 -35 l-34 -26 0 30 0 31 -90 0 -90 0
0 -305 0 -305 94 0 94 0 4 168 c3 136 7 173 21 200 20 37 68 62 117 62 l30 0
0 95 0 95 -27 -1 c-16 0 -41 -5 -56 -9z"/>
<path d="M6799 2766 c-133 -47 -207 -167 -197 -319 11 -170 115 -280 278 -294
93 -9 205 27 249 80 15 18 12 24 -51 96 l-36 43 -31 -23 c-20 -14 -50 -24 -84
-27 -49 -4 -57 -2 -90 28 -66 57 -59 60 153 60 l190 0 0 54 c0 185 -121 317
-289 316 -31 -1 -72 -7 -92 -14z m163 -173 c54 -59 49 -63 -67 -63 -58 0 -105
3 -105 8 0 11 31 55 50 69 8 7 33 13 56 13 31 0 46 -6 66 -27z"/>
<path d="M7830 2771 c-80 -26 -142 -81 -179 -161 -22 -46 -26 -69 -26 -145 0
-80 3 -96 29 -148 34 -66 79 -110 145 -141 67 -31 208 -30 272 2 25 12 56 33
69 47 26 27 24 32 -42 109 l-34 38 -38 -26 c-45 -30 -101 -34 -146 -11 -27 14
-60 51 -60 67 0 5 86 8 191 8 l192 0 -5 78 c-7 125 -60 216 -153 265 -44 22
-170 33 -215 18z m140 -164 c19 -14 50 -58 50 -69 0 -5 -45 -8 -100 -8 -113 0
-124 9 -73 62 21 22 36 28 67 28 23 0 48 -6 56 -13z"/>
<path d="M8555 2768 c-16 -6 -42 -20 -57 -30 l-28 -19 0 26 0 26 -92 -3 -93
-3 -3 -302 -2 -303 94 0 94 0 4 168 c3 135 7 173 22 200 20 38 67 62 121 62
l35 0 0 95 0 95 -32 -1 c-18 0 -46 -5 -63 -11z"/>
<path d="M860 2759 c0 -10 79 -270 158 -516 l26 -83 92 0 92 0 41 133 c64 201
57 185 67 163 4 -11 26 -80 48 -155 l41 -136 94 0 94 0 18 55 c23 72 159 510
165 533 5 15 -3 17 -80 17 l-84 0 -15 -47 c-9 -27 -32 -103 -53 -170 -20 -67
-40 -120 -44 -118 -4 2 -28 79 -55 170 l-48 165 -82 0 -82 0 -36 -112 c-19
-62 -44 -142 -54 -178 l-19 -65 -16 50 c-9 28 -33 107 -54 178 l-38 127 -88 0
c-59 0 -88 -4 -88 -11z"/>
<path d="M3540 2766 c0 -2 50 -138 110 -301 61 -164 110 -303 110 -310 0 -39
-78 -59 -116 -30 -10 8 -22 15 -26 15 -7 0 -55 -101 -64 -136 -5 -18 1 -26 24
-38 90 -46 205 -39 268 16 51 45 76 94 143 281 34 92 88 242 121 333 33 91 60
167 60 170 0 2 -41 4 -90 4 -85 0 -91 -1 -98 -22 -82 -230 -118 -326 -122
-323 -3 2 -33 80 -65 174 l-60 171 -97 0 c-54 0 -98 -2 -98 -4z"/>
<path d="M4860 2562 c0 -223 7 -272 50 -332 30 -42 112 -80 170 -80 45 0 121
28 134 49 12 19 26 12 26 -14 0 -25 1 -25 90 -25 l90 0 0 305 0 305 -95 0 -95
0 0 -164 c0 -92 -5 -177 -11 -193 -32 -85 -118 -100 -157 -26 -8 14 -12 84
-12 202 l0 181 -95 0 -95 0 0 -208z"/>
</g>
</svg>
